<?xml version="1.0" encoding="iso-8859-1"?>
<!-- Generator: Adobe Illustrator 18.0.0, SVG Export Plug-In . SVG Version: 6.00 Build 0)  -->
<!DOCTYPE svg PUBLIC "-//W3C//DTD SVG 1.1//EN" "http://www.w3.org/Graphics/SVG/1.1/DTD/svg11.dtd">
<svg version="1.1" id="Capa_1" xmlns="http://www.w3.org/2000/svg" xmlns:xlink="http://www.w3.org/1999/xlink" x="0px" y="0px"
	 viewBox="0 0 131.414 131.414" style="enable-background:new 0 0 131.414 131.414;" xml:space="preserve">
<g>
	<circle style="fill:#67BC47;" cx="65.707" cy="65.708" r="65.706"/>
	<g>
		<g>
			<path style="fill:#007F9B;" d="M86.108,42.622v61.899c0.897-1.173,21.673-28.464,21.673-40.193
				C107.782,52.351,98.081,42.64,86.108,42.622z"/>
			<path style="fill:#006D89;" d="M86.075,42.622c-11.988,0-21.707,9.718-21.707,21.706c0,11.988,21.707,40.237,21.707,40.237
				s0.014-0.017,0.034-0.044V42.622C86.097,42.622,86.087,42.622,86.075,42.622z"/>
			<path style="fill:#FFFFFF;" d="M96.735,63.515c0-5.876-4.754-10.641-10.627-10.659v21.318
				C91.981,74.155,96.735,69.392,96.735,63.515z"/>
			<path style="fill:#EDEDED;" d="M86.075,52.855c-5.887,0-10.66,4.771-10.66,10.659c0,5.888,4.773,10.66,10.66,10.66
				c0.013,0,0.023-0.001,0.034-0.001V52.855C86.097,52.855,86.087,52.855,86.075,52.855z"/>
		</g>
		<g>
			<path style="fill:#ED2A27;" d="M52.221,35.983v73.784c1.068-1.398,25.833-33.931,25.833-47.911
				C78.055,47.579,66.493,36.006,52.221,35.983z"/>
			<path style="fill:#DB1815;" d="M52.181,35.982c-14.29,0-25.874,11.583-25.874,25.874c0,14.289,25.874,47.963,25.874,47.963
				s0.017-0.021,0.04-0.052V35.983C52.208,35.983,52.194,35.982,52.181,35.982z"/>
			<path style="fill:#FFFFFF;" d="M64.888,60.889c0-7.006-5.668-12.685-12.667-12.707v25.41
				C59.22,73.571,64.888,67.891,64.888,60.889z"/>
			<path style="fill:#EDEDED;" d="M52.181,48.181c-7.018,0-12.706,5.689-12.706,12.708c0,7.016,5.688,12.705,12.706,12.705
				c0.013,0,0.027-0.002,0.04-0.002v-25.41C52.208,48.182,52.194,48.181,52.181,48.181z"/>
		</g>
	</g>
</g>
<g>
</g>
<g>
</g>
<g>
</g>
<g>
</g>
<g>
</g>
<g>
</g>
<g>
</g>
<g>
</g>
<g>
</g>
<g>
</g>
<g>
</g>
<g>
</g>
<g>
</g>
<g>
</g>
<g>
</g>
</svg>
