<?xml version="1.0" encoding="iso-8859-1"?>
<!-- Generator: Adobe Illustrator 19.0.0, SVG Export Plug-In . SVG Version: 6.00 Build 0)  -->
<svg version="1.1" id="Layer_1" xmlns="http://www.w3.org/2000/svg" xmlns:xlink="http://www.w3.org/1999/xlink" x="0px" y="0px"
	 viewBox="0 0 512 512" style="enable-background:new 0 0 512 512;" xml:space="preserve">
<path style="fill:#313A42;" d="M512,455.02c0,6.552-5.31,11.866-11.866,11.866H11.866C5.31,466.885,0,461.575,0,455.02V56.976
	c0-6.552,5.31-11.862,11.866-11.862h488.268c6.552,0,11.866,5.31,11.866,11.862V455.02z"/>
<g>
	<path style="fill:#55626D;" d="M309.569,265.371c0,1.492-1.208,2.704-2.704,2.704h-38.187c-1.492,0-2.704-1.208-2.704-2.704
		v-38.187c0-1.492,1.208-2.704,2.704-2.704h38.187c1.492,0,2.704,1.212,2.704,2.704V265.371z"/>
	<path style="fill:#55626D;" d="M374.455,265.371c0,1.492-1.208,2.704-2.704,2.704H333.56c-1.492,0-2.704-1.208-2.704-2.704v-38.187
		c0-1.492,1.208-2.704,2.704-2.704h38.191c1.492,0,2.704,1.212,2.704,2.704V265.371z"/>
	<path style="fill:#55626D;" d="M439.342,265.371c0,1.492-1.208,2.704-2.704,2.704H398.45c-1.492,0-2.704-1.208-2.704-2.704v-38.187
		c0-1.492,1.208-2.704,2.704-2.704h38.187c1.492,0,2.704,1.212,2.704,2.704V265.371z"/>
	<path style="fill:#55626D;" d="M309.569,323.159c0,1.492-1.208,2.704-2.704,2.704h-38.187c-1.492,0-2.704-1.208-2.704-2.704
		v-38.187c0-1.492,1.208-2.704,2.704-2.704h38.187c1.492,0,2.704,1.208,2.704,2.704V323.159z"/>
	<path style="fill:#55626D;" d="M374.455,323.159c0,1.492-1.208,2.704-2.704,2.704H333.56c-1.492,0-2.704-1.208-2.704-2.704v-38.187
		c0-1.492,1.208-2.704,2.704-2.704h38.191c1.492,0,2.704,1.208,2.704,2.704V323.159z"/>
	<path style="fill:#55626D;" d="M439.342,323.159c0,1.492-1.208,2.704-2.704,2.704H398.45c-1.492,0-2.704-1.208-2.704-2.704v-38.187
		c0-1.492,1.208-2.704,2.704-2.704h38.187c1.492,0,2.704,1.208,2.704,2.704V323.159z"/>
	<path style="fill:#55626D;" d="M309.569,380.947c0,1.492-1.208,2.704-2.704,2.704h-38.187c-1.492,0-2.704-1.212-2.704-2.704V342.76
		c0-1.492,1.208-2.704,2.704-2.704h38.187c1.492,0,2.704,1.208,2.704,2.704V380.947z"/>
	<path style="fill:#55626D;" d="M374.455,380.947c0,1.492-1.208,2.704-2.704,2.704H333.56c-1.492,0-2.704-1.212-2.704-2.704V342.76
		c0-1.492,1.208-2.704,2.704-2.704h38.191c1.492,0,2.704,1.208,2.704,2.704V380.947z"/>
	<path style="fill:#55626D;" d="M439.342,380.947c0,1.492-1.208,2.704-2.704,2.704H398.45c-1.492,0-2.704-1.212-2.704-2.704V342.76
		c0-1.492,1.208-2.704,2.704-2.704h38.187c1.492,0,2.704,1.208,2.704,2.704V380.947z"/>
</g>
<g>
	<circle style="fill:#697987;" cx="277.227" cy="420.503" r="14.591"/>
	<circle style="fill:#697987;" cx="327.493" cy="420.503" r="14.591"/>
	<circle style="fill:#697987;" cx="377.801" cy="420.503" r="14.591"/>
	<circle style="fill:#697987;" cx="428.109" cy="420.503" r="14.591"/>
</g>
<g style="opacity:0.6;">
	<path style="fill:#55626D;" d="M475.774,153.827c0,6.938-5.627,12.56-12.56,12.56H242.102c-6.938,0-12.56-5.623-12.56-12.56V81.07
		c0-6.938,5.623-12.565,12.56-12.565h221.111c6.938,0,12.56,5.627,12.56,12.565V153.827z"/>
</g>
<path style="fill:#9DCA73;" d="M458.1,148.147c0,3.181-2.581,5.762-5.762,5.762H252.977c-3.181,0-5.762-2.577-5.762-5.762V86.746
	c0-3.181,2.581-5.762,5.762-5.762h199.361c3.181,0,5.762,2.581,5.762,5.762V148.147z"/>
<g style="opacity:0.4;">
	<rect y="193.461" style="fill:#55626D;" width="511.996" height="5.96"/>
</g>
<rect y="187.501" style="fill:#23272A;" width="511.996" height="5.96"/>
<path style="fill:#55626D;" d="M188.395,130.592V40.935c0-13.103-32.729-23.728-73.098-23.728
	c-40.374,0-73.098,10.625-73.098,23.728v89.658c0,6.552,5.31,11.866,11.866,11.866h-0.403c0,0,16.708,1.221,16.708,20.02
	c0,11.29,0,175.748,0,187.043c0,18.8-16.708,20.02-16.708,20.02h0.403c-6.552,0-11.866,5.31-11.866,11.866v89.658
	c0,13.103,32.725,23.728,73.098,23.728c40.369,0,73.098-10.625,73.098-23.728v-89.662c0-6.552-5.31-11.866-11.866-11.866h0.403
	c0,0-16.708-1.221-16.708-20.02c0-11.295,0-175.752,0-187.043c0-18.8,16.708-20.02,16.708-20.02h-0.403
	C183.085,142.458,188.395,137.144,188.395,130.592z"/>
<path style="fill:#5C6B77;" d="M129.049,452.434c0,6.552-5.31,11.866-11.866,11.866h-3.773c-6.552,0-11.866-5.31-11.866-11.866
	V59.562c0-6.552,5.31-11.866,11.866-11.866h3.773c6.552,0,11.866,5.314,11.866,11.866
	C129.049,59.562,129.049,452.434,129.049,452.434z"/>
<g>
</g>
<g>
</g>
<g>
</g>
<g>
</g>
<g>
</g>
<g>
</g>
<g>
</g>
<g>
</g>
<g>
</g>
<g>
</g>
<g>
</g>
<g>
</g>
<g>
</g>
<g>
</g>
<g>
</g>
</svg>
